<svg xmlns="http://www.w3.org/2000/svg" xmlns:xlink="http://www.w3.org/1999/xlink" version="1.1" style="" xml:space="preserve" width="279" height="53"><rect id="backgroundrect" width="100%" height="100%" x="0" y="0" fill="none" stroke="none" class="" style=""/>
<style type="text/css">
	.st0{fill:#009DC6;}
	.st1{fill:#FFFFFF;}
	.st2{stroke:#000000;stroke-width:0.3912;stroke-linecap:round;stroke-linejoin:round;stroke-miterlimit:10;}
	.st3{opacity:0.34;fill:#FFFFFF;enable-background:new    ;}
	.st4{opacity:0.4;fill:#009DC6;enable-background:new    ;}
</style>

































<g class="currentLayer" style=""><title>Layer 1</title><path class="st0" d="M97.80000324249268,52.900000381469724 c0.30000000000000004,-2 0.7000000000000001,-4.8 1,-6.9 c-0.30000000000000004,0.1 -0.6000000000000001,0.2 -0.9,0.30000000000000004 c-2.5,0.2 -3.2,-1.9 -3.4,-4.4 s0.1,-4.5 2.6,-4.7 c2.2,-0.2 4.3,3.1 4.8,4 c0.30000000000000004,-0.9 1.5,-3.7 3.2,-3.9 c2,-0.2 2.5,1.4 2.8,3.4 c0.2,2.1 0,3.9 -2,4.1 c-1.7000000000000002,0.2 -3.5,-2.5 -3.9,-3.2 c-0.2,0.4 -0.6000000000000001,1.4 -1.2,2.3 c-0.2,1.4 -0.5,3.4 -0.5,3.8 c-0.1,0.8 -0.4,1.5 -0.5,2.2 c-0.30000000000000004,2.2 -0.30000000000000004,2.4 -0.4,3.2 c0.8,0.1 1.6,0.1 2.5,0.1 c14.6,0 26.4,-11.8 26.4,-26.4 c0,-14.6 -11.8,-26.4 -26.4,-26.4 S75.50000324249268,12.200000381469728 75.50000324249268,26.80000038146973 C75.50000324249268,40.000000381469725 85.20000324249267,50.900000381469724 97.80000324249268,52.900000381469724 zM108.60000324249268,10.500000381469725 c0,-0.1 -3.8,0 -3.9,0 c0,-0.7000000000000001 -0.1,-0.8 -0.30000000000000004,-1.3 c0.6000000000000001,0 3.7,-0.1 3.9,0 C108.50000324249268,9.700000381469728 108.80000324249268,10.300000381469726 108.60000324249268,10.500000381469725 zM103.70000324249267,11.400000381469727 c0.1,0.4 0.2,0.9 0.30000000000000004,1.3 c-1.1,0.1 -2.1,0.2 -3.2,0.30000000000000004 c-3.3,0.30000000000000004 -5.6,1.6 -7.9,2.9 c-0.30000000000000004,-0.2 -0.4,-1 -0.2,-1.3 c2.1,-1.4 4.5,-2.6 7.7,-3 C101.50000324249268,11.500000381469725 103.60000324249268,11.200000381469728 103.70000324249267,11.400000381469727 zM100.40000324249267,10.800000381469726 c-3.3,0.30000000000000004 -5.6,1.6 -7.9,2.9 c-0.30000000000000004,-0.2 -0.4,-0.9 -0.2,-1.3 c2.1,-1.4 4.5,-2.6 7.7,-3 c1,-0.1 3.1,-0.30000000000000004 3.2,-0.1 c0.1,0.4 0.2,0.8 0.30000000000000004,1.2 C102.50000324249268,10.600000381469727 101.50000324249268,10.700000381469728 100.40000324249267,10.800000381469726 zM98.10000324249268,24.000000381469725 c-0.6000000000000001,0.1 -1.3,0.1 -1.9,-0.1 c-1.3,-0.30000000000000004 -2.5,-1.1 -3.2,-2.2 c1.1,0.6000000000000001 2.3,0.9 3.4,1 c1.1,0.1 2.2,-0.2 3.1,-0.8 c0.2,-0.2 0.4,-0.30000000000000004 0.6000000000000001,-0.5 s0.5,-0.4 0.8,-0.6000000000000001 c0.6000000000000001,-0.4 1.2,-0.7000000000000001 1.9,-0.9 c0.7000000000000001,-0.1 1.4,-0.1 2.1,0.1 c0.6000000000000001,0.2 1.2,0.6000000000000001 1.6,1 c-0.6000000000000001,-0.2 -1.2,-0.4 -1.8,-0.4 c-0.6000000000000001,0 -1.1,0.1 -1.6,0.30000000000000004 c-0.5,0.2 -1,0.5 -1.4,0.9 c-0.2,0.2 -0.4,0.4 -0.6000000000000001,0.6000000000000001 c-0.2,0.2 -0.5,0.4 -0.7000000000000001,0.6000000000000001 c0.9,-0.30000000000000004 1.8,-0.5 2.8,-0.6000000000000001 s3.1,-0.4 3.2,-0.1 c0.1,0.4 0.2,0.8 0.30000000000000004,1.2 c-1.1,0.1 -2.1,0.2 -3.2,0.30000000000000004 c-3.3,0.30000000000000004 -5.6,1.6 -7.9,2.9 c-0.30000000000000004,-0.2 -0.4,-0.9 -0.2,-1.3 C96.20000324249267,25.000000381469725 97.10000324249268,24.400000381469724 98.10000324249268,24.000000381469725 zM95.90000324249267,27.80000038146973 c2.1,-1.4 4.5,-2.6 7.7,-3 c1,-0.1 3.2,-0.4 3.2,-0.1 c0.1,0.4 0.2,0.8 0.30000000000000004,1.2 c-1.1,0.1 -2.1,0.2 -3.2,0.30000000000000004 c-3.3,0.30000000000000004 -5.6,1.6 -7.9,2.9 C95.70000324249267,28.900000381469724 95.60000324249268,28.100000381469727 95.90000324249267,27.80000038146973 zM105.20000324249267,17.900000381469727 c0.1,0.4 0.2,0.8 0.30000000000000004,1.2 c-1.1,0.1 -2.1,0.2 -3.2,0.30000000000000004 c-3.3,0.30000000000000004 -5.6,1.6 -7.9,2.9 c-0.30000000000000004,-0.2 -0.4,-0.9 -0.2,-1.3 c2.1,-1.4 4.5,-2.6 7.7,-3 C103.00000324249268,17.900000381469727 105.10000324249268,17.700000381469728 105.20000324249267,17.900000381469727 zM101.80000324249268,17.200000381469728 c-3.3,0.30000000000000004 -5.6,1.6 -7.9,2.9 c-0.30000000000000004,-0.2 -0.4,-1 -0.2,-1.3 c2.1,-1.4 4.5,-2.6 7.7,-3 c1,-0.1 3.1,-0.30000000000000004 3.2,-0.1 c0.1,0.4 0.2,0.8 0.30000000000000004,1.2 C103.90000324249267,17.000000381469725 102.80000324249268,17.100000381469727 101.80000324249268,17.200000381469728 zM104.20000324249267,13.700000381469728 c0.1,0.4 0.2,0.8 0.30000000000000004,1.2 c-1.1,0.1 -2.1,0.2 -3.1,0.30000000000000004 c-3.3,0.30000000000000004 -5.6,1.6 -7.9,2.9 c-0.30000000000000004,-0.2 -0.4,-0.9 -0.2,-1.3 c2.1,-1.4 4.5,-2.6 7.7,-3 C102.00000324249268,13.700000381469728 104.10000324249268,13.400000381469727 104.20000324249267,13.700000381469728 zM109.00000324249268,12.500000381469725 c0,-0.1 -3.8,0.1 -3.9,0.1 c0,-0.7000000000000001 -0.1,-0.9 -0.30000000000000004,-1.3 c0.6000000000000001,0 3.6,-0.2 3.9,-0.1 C109.00000324249268,11.700000381469728 109.20000324249267,12.300000381469726 109.00000324249268,12.500000381469725 zM109.60000324249268,14.800000381469726 c0,-0.1 -3.8,0.1 -3.9,0.1 c0,-0.7000000000000001 -0.1,-0.9 -0.30000000000000004,-1.4 c0.6000000000000001,0 3.7,-0.1 3.9,0 C109.60000324249268,13.900000381469727 109.80000324249268,14.600000381469727 109.60000324249268,14.800000381469726 zM110.20000324249267,16.800000381469726 c0,-0.1 -3.8,0.1 -3.9,0.1 c-0.1,-0.7000000000000001 -0.1,-0.9 -0.30000000000000004,-1.3 c0.6000000000000001,0 3.7,-0.1 3.9,0 C110.20000324249267,16.000000381469725 110.40000324249267,16.600000381469727 110.20000324249267,16.800000381469726 zM110.80000324249268,18.900000381469727 c0,-0.1 -3.8,0.1 -3.9,0.1 c0,-0.7000000000000001 -0.1,-0.9 -0.30000000000000004,-1.3 c0.6000000000000001,0 3.6,-0.2 3.9,-0.1 C110.80000324249268,18.100000381469727 111.00000324249268,18.700000381469728 110.80000324249268,18.900000381469727 zM114.10000324249268,20.900000381469727 c-0.4,0.30000000000000004 -0.9,0.5 -1.5,0.6000000000000001 c-0.5,0.1 -1,0 -1.5,-0.1 c-0.9,-0.2 -1.7000000000000002,-0.6000000000000001 -2.4,-0.8 c-0.4,-0.1 -0.7000000000000001,-0.2 -1.1,-0.1 c-0.4,0.1 -0.7000000000000001,0.30000000000000004 -1.1,0.5 c0.1,-0.4 0.4,-0.9 0.8,-1.2 s1,-0.4 1.5,-0.4 c1,0 1.8,0.4 2.6,0.5 c0.8,0.2 1.4,0.2 2,-0.1 c0.7000000000000001,-0.30000000000000004 1.3,-0.9 2,-1.5 c-0.1,0.5 -0.2,0.9 -0.4,1.3 C114.80000324249268,20.200000381469728 114.50000324249268,20.600000381469727 114.10000324249268,20.900000381469727 zM107.80000324249268,23.500000381469725 c-0.1,-0.7000000000000001 -0.2,-0.9 -0.4,-1.4 c0.6000000000000001,0 3.6,-0.30000000000000004 3.9,-0.2 c0.30000000000000004,0.4 0.5,1.2 0.4,1.4 C111.70000324249267,23.30000038146973 107.90000324249267,23.500000381469725 107.80000324249268,23.500000381469725 zM111.90000324249267,24.30000038146973 c0.30000000000000004,0.4 0.5,1 0.4,1.3 c-0.1,-0.1 -3.8,0.2 -3.9,0.2 c-0.1,-0.7000000000000001 -0.1,-0.8 -0.30000000000000004,-1.3 C108.60000324249268,24.400000381469724 111.60000324249268,24.200000381469728 111.90000324249267,24.30000038146973 zM89.10000324249268,12.600000381469727 L89.10000324249268,12.600000381469727 c0,-0.1 0,-0.1 0,-0.2 l0,0 l0,0 c0.1,-0.5 0.2,-0.9 0.4,-1.2 c0.5,-0.7000000000000001 1.9,-4.2 5.8,-5.3 c5.1,-1.4 9.7,-0.7000000000000001 9.9,-0.6000000000000001 c4.4,0.2 2.5,3.4 2.5,3.4 s-0.4,-1.5 -1,-2 c0.6000000000000001,0.9 -0.1,2 -0.1,2 s-0.2,-1.6 -1.3,-2.3 c1.2,0.9 0.1,2.3 0.1,2.3 s-0.30000000000000004,-1.9 -1.6,-2.4 c1.3,0.7000000000000001 0,2.4 0,2.4 s-0.30000000000000004,-1.9 -1.7000000000000002,-2.5 c1.2,0.8 0.2,2.5 0.2,2.5 s-0.9,-2.3 -1.8,-2.5 c1.3,0.6000000000000001 0.1,2.6 0.1,2.6 s-0.5,-2.5 -1.6,-2.5 c1.3,0.6000000000000001 -0.30000000000000004,2.7 -0.30000000000000004,2.7 s0,-2.1 -1.4,-2.3 c-1,-0.1 -3,0.8 -3.4,1.1 c-0.2,0.2 -0.4,0.30000000000000004 -0.5,0.6000000000000001 c-0.4,0.5 -0.7000000000000001,1.1 -1,1.7000000000000002 c-0.30000000000000004,0.5 -0.6000000000000001,0.9 -1,1.1 c-0.1,0.30000000000000004 -0.2,0.5 -0.2,0.8 c-0.1,1.2 0.2,2.2 0.4,3.3 c0.8,3.9 1.5,7.8 2.3,11.6 c1.6,7.4 2.7,7.3 3.5,7.6 c0.1,0 3.9,-0.5 4.3,-4 c0.1,-0.8 0,-1.5 0.2,-1.9 c0.30000000000000004,-0.5 1.3,-0.6000000000000001 1.1,1.5 c-0.1,1.1 -0.2,2.3 -1.4,3.5 c-0.6000000000000001,0.6000000000000001 -1.3,1 -1.7000000000000002,1.4 c0.5,-0.30000000000000004 4.5,-1.9 4.3,-6.9 c0,-0.5 1.1,-0.6000000000000001 1.2,-0.2 c0.9,4.7 -3.4,7.2 -3.5,7.2 c0.7000000000000001,0.1 4.7,-1.6 4.6,-7.3 c0,-0.4 1.1,-0.6000000000000001 1.1,0 c0.30000000000000004,3.5 -0.8,5.4 -2.5,6.7 c0.7000000000000001,-0.30000000000000004 3.5,-1.8 3.3,-6.7 c0,-0.6000000000000001 0.7000000000000001,-0.6000000000000001 1,-0.2 c0,-0.1 0.8,3.3 -1.6,5.9 c0.1,-0.1 1.5,-0.7000000000000001 2,-2.7 c0.4,-1.3 0.30000000000000004,-1.7000000000000002 0.4,-3.4 c0,-0.2 0.5,-0.4 0.8,-0.1 c0.4,0.7000000000000001 0.4,4.1 -0.9,5.1 c2.7,-2.4 1.2,-5.1 1.8,-5.3 c0.4,-0.1 0.6000000000000001,0.30000000000000004 0.7000000000000001,0.7000000000000001 c1.4,5.3 -6,6.9 -7.2,7.1 c0.1,0 -1.2,0.4 -2,0.7000000000000001 c-0.9,0.30000000000000004 -6.8,0.9 -7.6,0.4 c-1.2,-0.6000000000000001 -3.1,-2.4 -3.4,-5 L89.10000324249268,14.700000381469728 C89.20000324249267,14.000000381469725 89.00000324249268,13.200000381469728 89.10000324249268,12.600000381469727 z" id="svg_1"/><path class="st1" d="M100.80000324249268,43.900000381469724 c-0.2,1.4 -0.5,3.4 -0.5,3.8 c-0.1,0.8 -0.4,1.5 -0.5,2.2 c-0.30000000000000004,2.2 -0.30000000000000004,2.4 -0.4,3.2 c-0.6000000000000001,-0.1 -1.1,-0.1 -1.7000000000000002,-0.2 c0.30000000000000004,-2 0.7000000000000001,-4.8 1,-6.9 C99.60000324249268,45.60000038146973 100.30000324249268,44.80000038146973 100.80000324249268,43.900000381469724 z" id="svg_2"/><path class="st1" d="M92.50000324249268,13.700000381469728 c-0.30000000000000004,-0.2 -0.4,-0.9 -0.2,-1.3 c2.1,-1.4 4.5,-2.6 7.7,-3 c1,-0.1 3.1,-0.30000000000000004 3.2,-0.1 c0.1,0.4 0.2,0.8 0.30000000000000004,1.2 c-1.1,0.1 -2.1,0.2 -3.1,0.30000000000000004 C97.10000324249268,11.100000381469727 94.90000324249267,12.400000381469727 92.50000324249268,13.700000381469728 z" id="svg_3"/><path d="M104.00000324249268,12.700000381469728 c-1.1,0.1 -2.1,0.2 -3.2,0.30000000000000004 c-3.3,0.30000000000000004 -5.6,1.6 -7.9,2.9 c-0.30000000000000004,-0.2 -0.4,-1 -0.2,-1.3 c2.1,-1.4 4.5,-2.6 7.7,-3 c1,-0.1 3.1,-0.4 3.2,-0.2 C103.80000324249268,11.800000381469726 103.90000324249267,12.300000381469726 104.00000324249268,12.700000381469728 z" id="svg_4" class=""/><path d="M104.20000324249267,13.700000381469728 c0.1,0.4 0.2,0.8 0.30000000000000004,1.2 c-1.1,0.1 -2.1,0.2 -3.1,0.30000000000000004 c-3.3,0.30000000000000004 -5.6,1.6 -7.9,2.9 c-0.30000000000000004,-0.2 -0.4,-0.9 -0.2,-1.3 c2.1,-1.4 4.5,-2.6 7.7,-3 C102.00000324249268,13.700000381469728 104.10000324249268,13.400000381469727 104.20000324249267,13.700000381469728 z" id="svg_5" class=""/><path class="st1" d="M93.90000324249267,20.200000381469728 c-0.30000000000000004,-0.2 -0.4,-1 -0.2,-1.3 c2.1,-1.4 4.5,-2.6 7.7,-3 c1,-0.1 3.1,-0.30000000000000004 3.2,-0.1 c0.1,0.4 0.2,0.8 0.30000000000000004,1.2 c-1.1,0.1 -2.2,0.2 -3.2,0.30000000000000004 C98.50000324249268,17.500000381469725 96.30000324249268,18.900000381469727 93.90000324249267,20.200000381469728 z" id="svg_6"/><path class="st1" d="M105.20000324249267,17.900000381469727 c0.1,0.4 0.2,0.8 0.30000000000000004,1.2 c-1.1,0.1 -2.1,0.2 -3.2,0.30000000000000004 c-3.3,0.30000000000000004 -5.6,1.6 -7.9,2.9 c-0.30000000000000004,-0.2 -0.4,-0.9 -0.2,-1.3 c2.1,-1.4 4.5,-2.6 7.7,-3 C103.00000324249268,17.900000381469727 105.10000324249268,17.700000381469728 105.20000324249267,17.900000381469727 z" id="svg_7"/><path class="st1" d="M100.30000324249268,23.100000381469727 c0.9,-0.30000000000000004 1.8,-0.5 2.8,-0.6000000000000001 s3.1,-0.4 3.2,-0.1 c0.1,0.4 0.2,0.8 0.30000000000000004,1.2 c-1.1,0.1 -2.1,0.2 -3.2,0.30000000000000004 c-3.3,0.30000000000000004 -5.6,1.6 -7.9,2.9 c-0.30000000000000004,-0.2 -0.4,-0.9 -0.2,-1.3 c0.9,-0.6000000000000001 1.8,-1.1 2.7,-1.6 C98.80000324249268,23.900000381469724 99.60000324249268,23.600000381469727 100.30000324249268,23.100000381469727 L100.30000324249268,23.100000381469727 z" id="svg_8"/><path class="st1" d="M106.80000324249268,24.700000381469728 c0.1,0.4 0.2,0.8 0.30000000000000004,1.2 c-1.1,0.1 -2.1,0.2 -3.2,0.30000000000000004 c-3.3,0.30000000000000004 -5.6,1.6 -7.9,2.9 c-0.30000000000000004,-0.2 -0.4,-0.9 -0.2,-1.3 c2.1,-1.4 4.5,-2.6 7.7,-3 C104.60000324249268,24.700000381469728 106.80000324249268,24.400000381469724 106.80000324249268,24.700000381469728 z" id="svg_9"/><path class="st1" d="M89.10000324249268,12.300000381469726 L89.10000324249268,12.300000381469726 C89.10000324249268,12.300000381469726 89.10000324249268,12.400000381469727 89.10000324249268,12.300000381469726 C89.10000324249268,12.400000381469727 89.10000324249268,12.300000381469726 89.10000324249268,12.300000381469726 z" id="svg_10"/><path class="st1" d="M91.20000324249267,12.100000381469727 c0,-0.30000000000000004 0.1,-0.5 0.30000000000000004,-0.8 l0,0 C91.30000324249268,11.500000381469725 91.30000324249268,11.700000381469728 91.20000324249267,12.100000381469727 c0,1.1 0.30000000000000004,2.1 0.5,3.2 c0.8,3.9 1.5,7.8 2.3,11.6 c1.6,7.4 2.7,7.3 3.5,7.6 c0.1,0 3.9,-0.5 4.3,-4 c0.1,-0.8 0,-1.5 0.2,-1.9 c0.30000000000000004,-0.5 1.3,-0.6000000000000001 1.1,1.5 c-0.1,1.1 -0.2,2.3 -1.4,3.5 c-0.6000000000000001,0.6000000000000001 -1.3,1 -1.7000000000000002,1.4 c0.5,-0.30000000000000004 4.5,-1.9 4.3,-6.9 c0,-0.5 1.1,-0.6000000000000001 1.2,-0.2 c0.9,4.7 -3.4,7.2 -3.5,7.2 c0.7000000000000001,0.1 4.7,-1.6 4.6,-7.3 c0,-0.4 1.1,-0.6000000000000001 1.1,0 c0.30000000000000004,3.5 -0.8,5.4 -2.5,6.7 c0.7000000000000001,-0.30000000000000004 3.5,-1.8 3.3,-6.7 c0,-0.6000000000000001 0.7000000000000001,-0.6000000000000001 1,-0.2 c0,-0.1 0.8,3.3 -1.6,5.9 c0.1,-0.1 1.5,-0.7000000000000001 2,-2.7 c0.4,-1.3 0.30000000000000004,-1.7000000000000002 0.4,-3.4 c0,-0.2 0.5,-0.4 0.8,-0.1 c0.4,0.7000000000000001 0.4,4.1 -0.9,5.1 c2.7,-2.4 1.2,-5.1 1.8,-5.3 c0.4,-0.1 0.6000000000000001,0.30000000000000004 0.7000000000000001,0.7000000000000001 c1.4,5.3 -6,6.9 -7.2,7.1 c0.1,0 -1.2,0.4 -2,0.7000000000000001 c-0.9,0.30000000000000004 -6.8,0.9 -7.6,0.4 c-1.2,-0.6000000000000001 -3.1,-2.4 -3.4,-5 l-3.3,-16.3 c-0.2,-0.8 -0.4,-1.6 -0.30000000000000004,-2.2 L91.20000324249267,12.100000381469727 z" id="svg_11"/><path class="st1" d="M92.50000324249268,10.100000381469727 c0.30000000000000004,-0.6000000000000001 0.6000000000000001,-1.2 1,-1.7000000000000002 C93.10000324249268,8.900000381469727 92.80000324249268,9.500000381469725 92.50000324249268,10.100000381469727 z" id="svg_12"/><path class="st1" d="M111.90000324249267,24.30000038146973 c0.30000000000000004,0.4 0.5,1 0.4,1.3 c-0.1,-0.1 -3.8,0.2 -3.9,0.2 c-0.1,-0.7000000000000001 -0.1,-0.8 -0.30000000000000004,-1.3 C108.60000324249268,24.400000381469724 111.60000324249268,24.200000381469728 111.90000324249267,24.30000038146973 z" id="svg_13"/><path class="st1" d="M107.50000324249268,22.100000381469727 c0.6000000000000001,0 3.6,-0.30000000000000004 3.9,-0.2 c0.30000000000000004,0.4 0.5,1.2 0.4,1.4 c-0.1,-0.1 -3.8,0.1 -3.9,0.1 C107.80000324249268,22.900000381469724 107.70000324249267,22.600000381469727 107.50000324249268,22.100000381469727 z" id="svg_14"/><path class="st1" d="M106.90000324249267,19.100000381469727 c0,-0.7000000000000001 -0.1,-0.9 -0.30000000000000004,-1.3 c0.6000000000000001,0 3.6,-0.2 3.9,-0.1 c0.30000000000000004,0.4 0.5,1.1 0.30000000000000004,1.3 C110.70000324249267,18.800000381469726 107.00000324249268,19.100000381469727 106.90000324249267,19.100000381469727 z" id="svg_15"/><path class="st1" d="M106.30000324249268,16.900000381469727 c-0.1,-0.7000000000000001 -0.1,-0.9 -0.30000000000000004,-1.3 c0.6000000000000001,0 3.7,-0.1 3.9,0 c0.30000000000000004,0.4 0.5,1.1 0.30000000000000004,1.3 C110.20000324249267,16.700000381469728 106.40000324249267,16.900000381469727 106.30000324249268,16.900000381469727 z" id="svg_16"/><path d="M105.70000324249267,14.800000381469726 c0,-0.7000000000000001 -0.1,-0.9 -0.30000000000000004,-1.4 c0.6000000000000001,0 3.7,-0.1 3.9,0 c0.30000000000000004,0.4 0.5,1.1 0.30000000000000004,1.3 C109.60000324249268,14.700000381469728 105.80000324249268,14.900000381469727 105.70000324249267,14.800000381469726 z" id="svg_17" class=""/><path d="M105.10000324249268,12.700000381469728 c0,-0.7000000000000001 -0.1,-0.9 -0.30000000000000004,-1.3 c0.6000000000000001,0 3.6,-0.2 3.9,-0.1 c0.30000000000000004,0.4 0.5,1.1 0.30000000000000004,1.3 C109.00000324249268,12.400000381469727 105.20000324249267,12.700000381469728 105.10000324249268,12.700000381469728 z" id="svg_18" class=""/><path class="st1" d="M104.60000324249268,10.500000381469725 c0,-0.7000000000000001 -0.1,-0.8 -0.30000000000000004,-1.3 c0.6000000000000001,0 3.7,-0.1 3.9,0 c0.30000000000000004,0.4 0.5,1.1 0.30000000000000004,1.3 C108.50000324249268,10.400000381469727 104.70000324249267,10.500000381469725 104.60000324249268,10.500000381469725 z" id="svg_19"/><path class="st2" d="M111.10000324249268,21.400000381469724 c-0.9,-0.2 -1.7000000000000002,-0.6000000000000001 -2.4,-0.8 c-0.4,-0.1 -0.7000000000000001,-0.2 -1.1,-0.1 c-0.4,0.1 -0.7000000000000001,0.30000000000000004 -1.1,0.5 c0.1,-0.4 0.4,-0.9 0.8,-1.2 s1,-0.4 1.5,-0.4 c1,0 1.8,0.4 2.6,0.5 c0.8,0.2 1.4,0.2 2,-0.1 c0.7000000000000001,-0.30000000000000004 1.3,-0.9 2,-1.5 c-0.1,0.5 -0.2,0.9 -0.4,1.3 c-0.2,0.4 -0.5,0.8 -0.9,1.1 s-0.9,0.5 -1.5,0.6000000000000001 C112.10000324249268,21.600000381469727 111.60000324249268,21.500000381469725 111.10000324249268,21.400000381469724 z" id="svg_20"/><path d="M100.30000324249268,23.30000038146973 c-0.6000000000000001,0.4 -1.4,0.7000000000000001 -2.2,0.8 C98.90000324249267,23.80000038146973 99.60000324249268,23.500000381469725 100.30000324249268,23.30000038146973 C100.40000324249267,23.30000038146973 100.40000324249267,23.30000038146973 100.30000324249268,23.30000038146973 z" id="svg_21" class=""/><path d="M92.50000324249268,10.100000381469727 c-0.30000000000000004,0.5 -0.6000000000000001,0.9 -1,1.1 c0,0 0,0 0,-0.1 C91.90000324249267,10.900000381469727 92.20000324249267,10.500000381469725 92.50000324249268,10.100000381469727 z" id="svg_22" class=""/><path d="M89.10000324249268,12.600000381469727 c0,-0.1 0,-0.1 0,-0.2 C89.10000324249268,12.400000381469727 89.10000324249268,12.500000381469725 89.10000324249268,12.600000381469727 L89.10000324249268,12.600000381469727 z" id="svg_23" class=""/><path d="M94.00000324249268,7.800000381469726 c0.30000000000000004,-0.30000000000000004 2.4,-1.5 3.3,-1.2 c0.9,0.2 1.2,-0.30000000000000004 1.5,-0.30000000000000004 c1.1,0 1.5,0 1.5,-0.2 c1.2,0 1.3,-0.30000000000000004 1.7000000000000002,-0.1 c1.4,0.1 1.3,0.1 1.6,0.1 c1.3,0.1 0.8,-0.30000000000000004 1.4,0.1 c1,0 0.6000000000000001,-0.1 0.8,-0.1 c0.8,0.1 1.9,-0.7000000000000001 -0.9,-0.9 c-0.2,0 -4.7,-0.7000000000000001 -9.7,0.6000000000000001 c-3.9,1 -5.2,4.5 -5.7,5.2 c-0.2,0.30000000000000004 -0.30000000000000004,0.7000000000000001 -0.5,1.3 c0.1,-0.5 0.2,-0.9 0.4,-1.2 c0.5,-0.7000000000000001 1.9,-4.2 5.8,-5.3 c5.1,-1.4 9.7,-0.7000000000000001 9.9,-0.6000000000000001 c4.4,0.2 2.5,3.4 2.5,3.4 s-0.4,-1.5 -1,-2 c0.6000000000000001,0.9 -0.1,2 -0.1,2 s-0.2,-1.6 -1.3,-2.3 c1.2,0.9 0.1,2.3 0.1,2.3 s-0.30000000000000004,-1.9 -1.6,-2.4 c1.3,0.7000000000000001 0,2.4 0,2.4 s-0.30000000000000004,-1.9 -1.7000000000000002,-2.5 c1.2,0.8 0.2,2.5 0.2,2.5 s-0.9,-2.3 -1.8,-2.5 c1.3,0.6000000000000001 0.1,2.6 0.1,2.6 s-0.5,-2.5 -1.6,-2.5 c1.3,0.6000000000000001 -0.30000000000000004,2.7 -0.30000000000000004,2.7 s0,-2.1 -1.4,-2.3 C96.40000324249267,6.600000381469727 94.30000324249268,7.600000381469727 94.00000324249268,7.800000381469726 c-0.2,0.2 -0.4,0.30000000000000004 -0.5,0.6000000000000001 C93.60000324249268,8.200000381469728 93.80000324249268,8.000000381469725 94.00000324249268,7.800000381469726 z" id="svg_24" class=""/><path d="M91.20000324249267,12.100000381469727 l-2.2,0.4 c0,-0.1 0,-0.1 0,-0.2 c0,0 0,0 0,-0.1 c0.2,-0.5 0.2,-1 0.5,-1.3 c0.5,-0.7000000000000001 1.8,-4.1 5.7,-5.2 c5,-1.4 9.5,-0.6000000000000001 9.7,-0.6000000000000001 c2.8,0.2 1.7000000000000002,0.9 0.9,0.9 c-0.1,0 0.2,0.1 -0.8,0.1 c-0.6000000000000001,-0.4 -0.2,-0.1 -1.4,-0.1 c-0.30000000000000004,0.1 -0.2,0 -1.6,-0.1 c-0.4,-0.2 -0.5,0.1 -1.7000000000000002,0.1 c0,0.2 -0.5,0.2 -1.5,0.2 c-0.4,0.1 -0.7000000000000001,0.5 -1.5,0.30000000000000004 c-0.9,-0.2 -3,1 -3.3,1.2 c-0.2,0.2 -0.4,0.30000000000000004 -0.5,0.6000000000000001 c-0.4,0.5 -0.7000000000000001,1.1 -1,1.7000000000000002 c-0.30000000000000004,0.4 -0.6000000000000001,0.8 -1,1.1 v0.1 C91.40000324249267,11.300000381469726 91.30000324249268,11.800000381469726 91.20000324249267,12.100000381469727 z" id="svg_25" class=""/><path d="M99.40000324249267,42.500000381469725 c-0.1,0.2 -0.30000000000000004,1.7000000000000002 -0.6000000000000001,3.5 c-0.30000000000000004,0.1 -0.6000000000000001,0.2 -0.9,0.30000000000000004 c-2.5,0.2 -3.2,-1.9 -3.4,-4.4 s0.1,-4.5 2.6,-4.7 c2.2,-0.2 4.3,3.1 4.8,4 c-0.1,0.1 -0.1,0.2 -0.1,0.2 s0,0.1 0.1,0.2 c-0.2,0.4 -0.6000000000000001,1.4 -1.2,2.3 c0.1,-0.6000000000000001 0.2,-1.1 0.2,-1.3 L99.40000324249267,42.500000381469725 z" id="svg_26" class=""/><path d="M98.80000324249268,46.000000381469725 c0.30000000000000004,-1.8 0.5,-3.3 0.6000000000000001,-3.5 l1.7000000000000002,0.1 c-0.1,0.2 -0.1,0.7000000000000001 -0.2,1.3 C100.30000324249268,44.80000038146973 99.60000324249268,45.60000038146973 98.80000324249268,46.000000381469725 z" id="svg_27" class=""/><path d="M102.00000324249268,41.20000038146973 c0.30000000000000004,-0.9 1.5,-3.7 3.2,-3.9 c2,-0.2 2.5,1.4 2.8,3.4 c0.2,2.1 0,3.9 -2,4.1 c-1.7000000000000002,0.2 -3.5,-2.5 -3.9,-3.2 c0.1,-0.1 0.1,-0.2 0.1,-0.2 S102.00000324249268,41.30000038146973 102.00000324249268,41.20000038146973 z" id="svg_28" class=""/><path d="M102.00000324249268,41.20000038146973 c0.1,0.1 0.1,0.2 0.1,0.2 s0,0.1 -0.1,0.2 c-0.1,-0.1 -0.1,-0.2 -0.1,-0.2 S101.90000324249267,41.30000038146973 102.00000324249268,41.20000038146973 z" id="svg_29" class=""/><path class="st2" d="M96.20000324249267,23.900000381469724 c-1.3,-0.30000000000000004 -2.5,-1.1 -3.2,-2.2 c1.1,0.6000000000000001 2.3,0.9 3.4,1 c1.1,0.1 2.2,-0.2 3.1,-0.8 c0.2,-0.2 0.4,-0.30000000000000004 0.6000000000000001,-0.5 s0.5,-0.4 0.8,-0.6000000000000001 c0.6000000000000001,-0.4 1.2,-0.7000000000000001 1.9,-0.9 c0.7000000000000001,-0.1 1.4,-0.1 2.1,0.1 c0.6000000000000001,0.2 1.2,0.6000000000000001 1.6,1 c-0.6000000000000001,-0.2 -1.2,-0.4 -1.8,-0.4 c-0.6000000000000001,0 -1.1,0.1 -1.6,0.30000000000000004 c-0.5,0.2 -1,0.5 -1.4,0.9 c-0.2,0.2 -0.4,0.4 -0.6000000000000001,0.6000000000000001 c-0.2,0.2 -0.5,0.4 -0.7000000000000001,0.6000000000000001 c-0.8,0.2 -1.5,0.5 -2.2,0.9 C97.40000324249267,24.100000381469727 96.80000324249268,24.000000381469725 96.20000324249267,23.900000381469724 z" id="svg_30"/><path class="st3" d="M86.60000324249268,42.60000038146973 c0,-3.2 -2.6,-5.8 -5.8,-5.8 s-5.8,2.6 -5.8,5.8 s2.6,5.8 5.8,5.8 C84.00000324249268,48.400000381469724 86.60000324249268,45.80000038146973 86.60000324249268,42.60000038146973 z" id="svg_31"/><path class="st4" d="M132.30000324249266,9.900000381469727 c0,-5.5 -4.5,-9.9 -9.9,-9.9 c-5.5,0 -9.9,4.5 -9.9,9.9 c0,5.5 4.5,9.9 9.9,9.9 C127.90000324249269,19.800000381469726 132.30000324249266,15.400000381469727 132.30000324249266,9.900000381469727 z" id="svg_32"/><g id="svg_33" class="">
	<path d="M2.100003242492676,20.200000381469728 c1.3,-0.7000000000000001 3.1,-1.1 5.4,-1.1 c2.3,0 4.4,0.30000000000000004 6.3,0.9 L13.100003242492676,24.100000381469727 c-1.6,-0.4 -3.2,-0.7000000000000001 -4.7,-0.7000000000000001 c-0.5,0 -1.2,0 -2.1,0.1 v1 c3.3,0 5.5,0.5 6.7,1.5 c0.6000000000000001,0.5 1,1 1.2,1.6 s0.4,1.3 0.4,2.1 s-0.1,1.6 -0.30000000000000004,2.2 c-0.2,0.6000000000000001 -0.5,1.2 -0.9,1.5 c-0.4,0.4 -0.8,0.7000000000000001 -1.2,0.9 s-1,0.4 -1.7000000000000002,0.5 c-1.1,0.2 -2.3,0.2 -3.7,0.2 c-2.5,0 -4.8,-0.30000000000000004 -6.8,-0.9 l0.8,-4.3 c1.7000000000000002,0.5 3.5,0.8 5.5,0.8 c0.9,0 1.7000000000000002,0 2.5,-0.1 v-1 c-3.2,0 -5.5,-0.4 -6.7,-1.3 c-1.2,-0.9 -1.8,-2.3 -1.8,-4.2 C0.20000324249267543,22.30000038146973 0.8000032424926751,20.900000381469727 2.100003242492676,20.200000381469728 z" id="svg_34"/>
	<path d="M15.800003242492675,23.500000381469725 v-3.9 h1.5 v-2.4 l6.1,-1.5 v3.9 h2.1 v3.9 h-2.1 v6.9 c0.5,0.1 1.1,0.2 1.8,0.2 L24.900003242492673,35.10000038146973 c-2.8,0 -4.6,-0.2 -5.4,-0.5 c-1,-0.4 -1.7000000000000002,-0.9 -1.9,-1.5 c-0.2,-0.4 -0.2,-0.8 -0.2,-1.3 v-8.4 h-1.6 V23.500000381469725 z" id="svg_35"/>
	<path d="M33.70000324249268,29.600000381469727 v1.1 c0.6000000000000001,0.1 1.2,0.1 1.8,0.1 c1.9,0 3.8,-0.30000000000000004 5.7,-0.9 l0.7000000000000001,4.5 c-2.3,0.6000000000000001 -4.5,0.9 -6.7,0.9 c-2.8,0 -4.9,-0.7000000000000001 -6.2,-2 S27.100003242492676,30.000000381469725 27.100003242492676,27.200000381469728 c0,-2.7 0.6000000000000001,-4.7 1.9,-6.1 c1.3,-1.3 3.3,-2 6.1,-2 s4.8,0.4 5.8,1.2 c1.1,0.8 1.6,2.2 1.6,4.3 c0,1.8 -0.6000000000000001,3.1 -1.9,3.8 C39.40000324249267,29.30000038146973 37.100003242492676,29.600000381469727 33.70000324249268,29.600000381469727 zM33.70000324249268,24.900000381469724 V26.100000381469727 h1.2 c0.7000000000000001,0 1.3,-0.1 1.6,-0.2 c0.30000000000000004,-0.2 0.5,-0.5 0.5,-1 v-1.2 h-1.2 c-0.7000000000000001,0 -1.3,0.1 -1.6,0.2 C33.80000324249268,24.000000381469725 33.70000324249268,24.30000038146973 33.70000324249268,24.900000381469724 z" id="svg_36"/>
	<path d="M53.40000324249267,24.200000381469728 h-0.4 c-0.5,0 -0.8,0 -1,0.1 c-0.2,0 -0.5,0.2 -0.7000000000000001,0.4 s-0.30000000000000004,0.5 -0.30000000000000004,1 v9.2 h-6.1 V19.700000381469728 h3 l1.4,1.4 c1.2,-1.2 2.9,-1.9 4.9,-1.9 s3.5,0.4 4.3,1.2 c1.2,-0.8 2.7,-1.2 4.3,-1.2 s2.9,0.30000000000000004 3.8,0.9 c0.9,0.6000000000000001 1.4,1.5 1.4,2.6 v12.2 h-6.1 V24.30000038146973 h-0.4 c-0.4,0 -0.8,0 -1,0.1 c-0.2,0 -0.5,0.2 -0.7000000000000001,0.30000000000000004 c-0.2,0.2 -0.30000000000000004,0.5 -0.30000000000000004,0.8 v9.4 h-6.1 L53.40000324249267,24.200000381469728 L53.40000324249267,24.200000381469728 z" id="svg_37"/>
	<path class="st0" d="M146.10000324249268,19.200000381469728 c4.9,0 7.3,1.7000000000000002 7.3,5 v10.6 h-3 l-1.7000000000000002,-1.7000000000000002 c-0.6000000000000001,0.7000000000000001 -1.4,1.2 -2.4,1.6 s-2,0.6000000000000001 -2.9,0.6000000000000001 s-1.6,-0.1 -2.2,-0.2 c-0.5,-0.1 -1.1,-0.4 -1.6,-0.7000000000000001 c-1.2,-0.7000000000000001 -1.7000000000000002,-2.1 -1.7000000000000002,-4.1 c0,-3.6 2.8,-5.5 8.3,-5.5 h1.2 v-1.1 c-0.6000000000000001,0 -1.2,-0.1 -1.6,-0.1 c-2.3,0 -4.3,0.30000000000000004 -5.9,0.8 l-0.7000000000000001,-4.3 C141.10000324249268,19.500000381469725 143.50000324249268,19.200000381469728 146.10000324249268,19.200000381469728 zM144.00000324249268,29.600000381469727 v1.2 h1.2 c0.9,0 1.5,-0.1 1.7000000000000002,-0.30000000000000004 c0.30000000000000004,-0.2 0.4,-0.5 0.4,-0.8 v-1.4 H146.10000324249268 c-0.7000000000000001,0 -1.3,0.1 -1.6,0.2 C144.20000324249267,28.700000381469728 144.00000324249268,29.000000381469725 144.00000324249268,29.600000381469727 z" id="svg_38"/>
	<path class="st0" d="M167.30000324249266,30.30000038146973 l0.4,4.4 c-1.1,0.4 -2.4,0.6000000000000001 -4.1,0.6000000000000001 c-2.8,0 -4.9,-0.7000000000000001 -6.2,-2 c-1.3,-1.3 -1.9,-3.3 -1.9,-6.1 c0,-2.7 0.6000000000000001,-4.7 1.9,-6.1 c1.3,-1.3 3.3,-2 6.2,-2 c1.8,0 3.1,0.2 4.1,0.6000000000000001 l-0.7000000000000001,4.1 c-1.1,-0.2 -1.9,-0.30000000000000004 -2.6,-0.30000000000000004 c-1.5,0 -2.3,0.5 -2.3,1.6 v5.4 c0.6000000000000001,0.1 1.3,0.2 2.3,0.2 C165.20000324249267,30.80000038146973 166.20000324249267,30.600000381469727 167.30000324249266,30.30000038146973 z" id="svg_39"/>
	<path class="st0" d="M169.20000324249267,23.500000381469725 v-3.9 h1.5 v-2.4 l6.1,-1.5 v3.9 h2.1 v3.9 h-2.1 v6.9 c0.5,0.1 1.1,0.2 1.8,0.2 l-0.30000000000000004,4.5 c-2.8,0 -4.6,-0.2 -5.4,-0.5 c-1,-0.4 -1.7000000000000002,-0.9 -1.9,-1.5 c-0.2,-0.4 -0.2,-0.8 -0.2,-1.3 v-8.4 h-1.6 V23.500000381469725 z" id="svg_40"/>
	<path class="st0" d="M187.10000324249268,29.600000381469727 v1.1 c0.6000000000000001,0.1 1.2,0.1 1.8,0.1 c1.9,0 3.8,-0.30000000000000004 5.7,-0.9 l0.7000000000000001,4.5 c-2.3,0.6000000000000001 -4.5,0.9 -6.7,0.9 c-2.8,0 -4.9,-0.7000000000000001 -6.2,-2 c-1.3,-1.3 -1.9,-3.3 -1.9,-6.1 c0,-2.7 0.6000000000000001,-4.7 1.9,-6.1 c1.3,-1.3 3.3,-2 6.1,-2 c2.8,0 4.8,0.4 5.8,1.2 c1.1,0.8 1.6,2.2 1.6,4.3 c0,1.8 -0.6000000000000001,3.1 -1.9,3.8 C192.80000324249266,29.30000038146973 190.50000324249268,29.600000381469727 187.10000324249268,29.600000381469727 zM187.10000324249268,24.900000381469724 V26.100000381469727 h1.2 c0.7000000000000001,0 1.3,-0.1 1.6,-0.2 c0.30000000000000004,-0.2 0.5,-0.5 0.5,-1 v-1.2 h-1.2 c-0.7000000000000001,0 -1.3,0.1 -1.6,0.2 C187.20000324249267,24.000000381469725 187.10000324249268,24.30000038146973 187.10000324249268,24.900000381469724 z" id="svg_41"/>
	<path class="st0" d="M198.30000324249266,19.600000381469727 h3 l1.7000000000000002,1.7000000000000002 c1.2,-1.1 2.7,-1.8 4.5,-2.2 l0.4,5.7 c-0.5,0 -1.1,0.1 -1.9,0.4 c-0.8,0.2 -1.3,0.5 -1.6,0.9 v8.7 h-6.1 V19.600000381469727 z" id="svg_42"/>
	<path class="st0" d="M215.60000324249268,29.600000381469727 v1.1 c0.6000000000000001,0.1 1.2,0.1 1.8,0.1 c1.9,0 3.8,-0.30000000000000004 5.7,-0.9 l0.7000000000000001,4.5 c-2.3,0.6000000000000001 -4.5,0.9 -6.7,0.9 c-2.8,0 -4.9,-0.7000000000000001 -6.2,-2 c-1.3,-1.3 -1.9,-3.3 -1.9,-6.1 c0,-2.7 0.6000000000000001,-4.7 1.9,-6.1 c1.3,-1.3 3.3,-2 6.1,-2 s4.8,0.4 5.8,1.2 c1.1,0.8 1.6,2.2 1.6,4.3 c0,1.8 -0.6000000000000001,3.1 -1.9,3.8 C221.4000032424927,29.30000038146973 219.00000324249268,29.600000381469727 215.60000324249268,29.600000381469727 zM215.60000324249268,24.900000381469724 V26.100000381469727 h1.2 c0.7000000000000001,0 1.3,-0.1 1.6,-0.2 c0.30000000000000004,-0.2 0.5,-0.5 0.5,-1 v-1.2 h-1.2 c-0.7000000000000001,0 -1.3,0.1 -1.6,0.2 C215.80000324249266,24.000000381469725 215.60000324249268,24.30000038146973 215.60000324249268,24.900000381469724 z" id="svg_43"/>
	<path class="st0" d="M229.9000032424927,19.600000381469727 l1.5,1.5 c1.9,-1.3 3.9,-2 6.1,-2 c1.4,0 2.5,0.30000000000000004 3.3,0.9 c0.8,0.6000000000000001 1.2,1.5 1.2,2.6 v12.2 h-6.1 V24.200000381469728 h-0.9 c-0.7000000000000001,0 -1.2,0.1 -1.6,0.2 c-0.4,0.2 -0.5,0.5 -0.5,0.9 v9.5 h-6.1 V19.600000381469727 L229.9000032424927,19.600000381469727 L229.9000032424927,19.600000381469727 z" id="svg_44"/>
	<path class="st0" d="M245.00000324249265,34.30000038146973 c-0.4,-0.5 -0.7000000000000001,-1.3 -0.7000000000000001,-2.5 s0.2,-2 0.7000000000000001,-2.5 c0.4,-0.5 1.3,-0.7000000000000001 2.6,-0.7000000000000001 c1.3,0 2.2,0.2 2.6,0.7000000000000001 s0.7000000000000001,1.3 0.7000000000000001,2.5 s-0.2,2 -0.7000000000000001,2.5 c-0.4,0.5 -1.3,0.7000000000000001 -2.6,0.7000000000000001 C246.30000324249266,35.000000381469725 245.4000032424927,34.80000038146973 245.00000324249265,34.30000038146973 z" id="svg_45"/>
	<path class="st0" d="M256.1000032424927,19.600000381469727 l1.5,1.5 c1.9,-1.3 3.9,-2 6.1,-2 c1.4,0 2.5,0.30000000000000004 3.3,0.9 c0.8,0.6000000000000001 1.2,1.5 1.2,2.6 v12.2 H262.1000032424927 V24.200000381469728 h-0.9 c-0.7000000000000001,0 -1.2,0.1 -1.6,0.2 c-0.4,0.2 -0.5,0.5 -0.5,0.9 v9.5 h-6.1 V19.600000381469727 L256.1000032424927,19.600000381469727 L256.1000032424927,19.600000381469727 z" id="svg_46"/>
	<path class="st0" d="M277.2000032424927,14.600000381469727 v15.9 c0.6000000000000001,0.1 1.1,0.2 1.5,0.2 l-0.30000000000000004,4.5 c-2.6,0 -4.3,-0.2 -5.1,-0.5 c-1,-0.4 -1.7000000000000002,-0.9 -1.9,-1.5 c-0.2,-0.4 -0.2,-0.8 -0.2,-1.3 V15.000000381469725 L277.2000032424927,14.600000381469727 z" id="svg_47"/>
</g></g></svg>